# xmcd
#
# Track frame offsets:
#	182
#	13097
#	27490
#	47247
#	60667
#	73607
#	85385
#	102455
#	114175
#	126085
#	138575
#	149480
#	161567
#	176327
#
# Disc length: 2488 seconds
#
# Revision: 0
# Processed by: cddbd v1.4PL0 Copyright (c) Steve Scherf et al.
# Submitted via: dBpowerAMP V4.0
#
DISCID=c809b60e
DTITLE=Various Artist - Qualis - Blues Forever
DYEAR=1900
DGENRE=Blues
TTITLE0=Willie Mabon - Seventh son
TTITLE1=Buddy Guy - My time after a while
TTITLE2=Little Milton -Stormy monday
TTITLE3=John Lee Hooker - One bourbon, one scoth, one beer
TTITLE4=John Lee Hooker - Hobo blues
TTITLE5=Paul Gayten - Down boy
TTITLE6=Howlin' Wolf - The red rooster
TTITLE7=Etta James - I'd rather go blind
TTITLE8=Little Walter - Temperature
TTITLE9=Little Walter- Dead presidents
TTITLE10=Laura Lee - Need to belong
TTITLE11=Otis Rush - You now my love
TTITLE12=Jimmy Whiterspoon - Goin'down slow
TTITLE13=Percy Mayfield - Double Dealing
EXTD=
EXTT0=
EXTT1=
EXTT2=
EXTT3=
EXTT4=
EXTT5=
EXTT6=
EXTT7=
EXTT8=
EXTT9=
EXTT10=
EXTT11=
EXTT12=
EXTT13=
PLAYORDER=
